<svg viewBox="0 0 256 256" xmlns="http://www.w3.org/2000/svg" xmlns:xlink="http://www.w3.org/1999/xlink"><clipPath id="a"><circle cx="128" cy="128" r="128"></circle></clipPath><circle cx="128" cy="128" fill="#6554c0" r="128"></circle><g clip-path="url(#a)"><path d="m207.34 228.44-28.87-16.1a5.14 5.14 0 0 0 -2.57-.84l-47.9-2.5-47.9 2.5a5.14 5.14 0 0 0 -2.57.84l-28.87 16.1a128 128 0 0 0 158.69 0z" fill="#c0b6f2"></path><path d="m173 216.53c-1 1.47-19.4 25.85-49.64 23.47-24.49-1.9-38.3-19.91-40.38-22.71a33 33 0 0 0 12.26-18.56c3.59-15.54-6.26-27.5-7.41-28.86h76.56c-.53.72-11.78 16.34-4.67 32.45a30.69 30.69 0 0 0 13.28 14.21z" fill="#e4b69d"></path><path d="m60.8 101c.11-2.65 2.37-5.08 2.79-7.69s-1-5.63-.24-8.17 3.47-4.4 4.46-6.85.32-5.7 1.58-8 4.34-3.54 5.85-5.71 1.55-5.58 3.29-7.58 5-2.51 7-4.3 2.73-5 4.87-6.57 5.44-1.29 7.76-2.58 3.83-4.22 6.29-5.22 5.57.08 8.15-.59 4.75-3.13 7.4-3.47 5.35 1.49 8 1.49 5.45-1.82 8-1.49 4.87 2.8 7.4 3.47 5.72-.39 8.15.59 4 3.94 6.29 5.22 5.62 1 7.76 2.58 2.93 4.78 4.87 6.57 5.22 2.3 7 4.3 1.78 5.31 3.28 7.49 4.59 3.39 5.85 5.71.58 5.57 1.58 8 3.75 4.31 4.46 6.85-.66 5.56-.24 8.17 2.68 5 2.79 7.69c.12 2.8-1.94 5.56-2.17 8.34s1.33 5.85.76 8.58-3.23 4.92-4.12 7.57-.08 6-1.27 8.52-4.28 4-5.75 6.42-1.44 5.82-3.18 8-5.09 3-7.06 4.93-2.75 5.33-5 7-5.64 1.66-8 3.09-4 4.48-6.55 5.59-5.85.16-8.56.91-5 3.27-7.8 3.65-5.66-1.43-8.5-1.43-5.77 1.8-8.5 1.42-5.13-2.91-7.8-3.65-6 .19-8.56-.91-4.16-4.17-6.55-5.59-5.84-1.37-8-3.09-3-5.07-5-7-5.33-2.74-7.06-4.93-1.7-5.63-3.18-8-4.55-3.83-5.74-6.33-.38-5.87-1.27-8.52-3.55-4.83-4.12-7.57 1-5.79.76-8.58-2.28-5.56-2.17-8.33z" fill="#543e36"></path><ellipse cx="73.53" cy="129.61" fill="#e4b69d" rx="13.28" ry="16.52" transform="matrix(.96953092 -.24496897 .24496897 .96953092 -29.51 21.96)"></ellipse><ellipse cx="183.17" cy="129.61" fill="#e4b69d" rx="16.52" ry="13.28" transform="matrix(.24496897 -.96953092 .96953092 .24496897 12.63 275.44)"></ellipse><path d="m127.88 46.1c27.71.17 44.57 18.9 47.18 21.9 17.58 20.21 15.71 44.27 15.32 49.34-1 12.46-6 22.37-15.63 42.38a275.3 275.3 0 0 1 -14.75 26.8 15.84 15.84 0 0 1 -6.24 5.69 61.77 61.77 0 0 1 -25.86 6.74 61.77 61.77 0 0 1 -25.9-6.74 15.84 15.84 0 0 1 -6.24-5.69 275.3 275.3 0 0 1 -14.76-26.78c-9.64-20-14.66-29.92-15.63-42.38-.37-5.08-2.25-29.13 15.33-49.36 2.6-3 19.47-21.73 47.18-21.9z" fill="#efc7b0"></path><g fill="#543e36"><path d="m126.52 79.93c4 0 7.88 1.45 11.21.6 3.84-1 6.61-4.27 9.71-5.69 3.78-1.73 7.9-1.66 10.81-2.91 4.14-1.78 7.73-4.22 10.71-2 2 1.52 1.23 4.62 1.67 7.24.35 2.09 2.5 4.2 2.84 6.9.28 2.18-1.3 5-.51 7.52.66 2.1 3.44 3.52 4.75 5.84 1 1.81.45 4.6 1.65 6.12s4.16 1.7 5.57 3 1.81 4.27 3.36 5.37c1.75 1.25 4 .44 5.62 1.32a44.44 44.44 0 0 0 .14-15.95c-.8-4.9-4.14-9.93-6.45-15.68-2-4.89-2.85-10.9-6.41-15.7-3.19-4.23-8.46-6.91-13.19-10.59-4.13-3.22-7.31-7.44-11.5-9.34-4.78-2.16-10.12-1.63-14.61-2.5-5.34-1-10.15-3.35-14.45-3.27-7.7.16-12.91 3.52-14.27 3.88s-7.17-.09-13.62 3.2c-3.6 1.87-6.5 6-10.51 9.27-3.36 2.7-8.15 4.48-11.27 8.33-2.77 3.38-3.6 8.35-5.77 12.76-1.44 2.88-4.49 5-5.42 7.72-1 3.09.19 6.6-.34 9.43-.62 3.31-3 6.15-3.13 8.9-.21 3.79 1.44 6.1 1.61 8.36 1.64-1.28 3.6-1.13 5.32-2.82 1.53-1.51 1.52-4.54 3-6.41s4.29-2.48 5.43-4.52.14-4.8.93-7c.63-1.77 3-2.84 3.37-4.34.4-1.87-1.4-3.86-1.25-5.35.2-2 2.31-3.34 2.57-4.77.33-1.78-.74-4.17.67-5.36 2.7-2.29 6.35 0 10.55 1.58 2.89 1.11 6.94.82 10.7 2.36 3.09 1.27 5.88 4.45 9.65 5.31 3.2.75 7-.79 10.86-.81z"></path><path d="m188.09 103.42-3.54 15.74a10.07 10.07 0 0 0 3.54 10.28s3.62-9.49 4.45-14.07-4.45-11.95-4.45-11.95z"></path><path d="m67.29 103.42 3.34 15.74a10.41 10.41 0 0 1 -3.34 10.28s-3.42-9.49-4.2-14.07 4.2-11.95 4.2-11.95z"></path></g></g><circle cx="128" cy="128" fill="none" r="128"></circle></svg>