<svg viewBox="0 0 256 256" xmlns="http://www.w3.org/2000/svg" xmlns:xlink="http://www.w3.org/1999/xlink"><clipPath id="a"><circle cx="128" cy="128" r="128"></circle></clipPath><linearGradient id="b" gradientUnits="userSpaceOnUse" x1="134.84" x2="134.84" y1="253.32" y2="82.36"><stop offset="0" stop-color="#cea28b"></stop><stop offset=".16" stop-color="#ddb69e"></stop><stop offset=".36" stop-color="#ebc9b0"></stop><stop offset=".49" stop-color="#f0d0b6"></stop></linearGradient><linearGradient id="c" gradientUnits="userSpaceOnUse" x1="129.98" x2="129.98" y1="234.11" y2="175.84"><stop offset="0" stop-color="#533e37"></stop><stop offset=".43" stop-color="#503b34"></stop><stop offset=".75" stop-color="#47312b"></stop><stop offset="1" stop-color="#3b241e"></stop></linearGradient><linearGradient id="d" gradientUnits="userSpaceOnUse" x1="134.38" x2="199.41" y1="79.7" y2="79.7"><stop offset="0" stop-color="#cea28b"></stop><stop offset=".32" stop-color="#ddb69e"></stop><stop offset=".72" stop-color="#ebc9b0"></stop><stop offset="1" stop-color="#f0d0b6"></stop></linearGradient><linearGradient id="e" gradientUnits="userSpaceOnUse" x1="57.14" x2="129.47" y1="56.75" y2="56.75"><stop offset="0" stop-color="#cea28b"></stop><stop offset=".15" stop-color="#ddb69e"></stop><stop offset=".33" stop-color="#ebc9b0"></stop><stop offset=".46" stop-color="#f0d0b6"></stop></linearGradient><circle cx="128" cy="128" fill="#57d9a3" r="128"></circle><g clip-path="url(#a)"><path d="m238.86 192.6c0-4.34-.75-9.43-4-13.78-9.46-12.69-30.2-6.15-35.38-17.55-1.61-3.53.37-4.2-.56-16.59a123.52 123.52 0 0 0 -2.61-17.25c-1-3.92-7-19.31-68.32-35.2-33.19-8.6-49.79-12.89-61.71-7.44-33.51 15.32-48.31 79.59-22 118.32 11.18 16.43 27.12 24.38 36.48 28.09a122.17 122.17 0 0 0 39.72 18.53 126.84 126.84 0 0 0 34.24 3.54 128.16 128.16 0 0 0 84.14-60.67z" fill="url(#b)"></path><path d="m169 213.14-39-2-39 2a4.19 4.19 0 0 0 -2.09.69l-31.47 20.76a128 128 0 0 0 143.41-1.11l-29.73-19.65a4.19 4.19 0 0 0 -2.12-.69z" fill="#abf5d1"></path><path d="m166.68 214.49c-.86 1.21-15.83 21.43-40.48 19.48-20-1.58-31.22-16.5-32.91-18.82a51.59 51.59 0 0 0 5.35-15.38 52.21 52.21 0 0 0 -1.41-23.92h62.4a38.7 38.7 0 0 0 -1 24.1 37.77 37.77 0 0 0 8.05 14.54z" fill="url(#c)"></path><path d="m141.28 96.13h24.16" fill="#533e37"></path><path d="m198.77 163 .22-25.92.43-51.15-141.9-4.56-.29 81.63z" fill="#f0d0b6"></path><circle cx="118.87" cy="81.37" fill="#f0d0b6" r="61.35"></circle><path d="m81.47 125.2c0 6.32-1.28 18.4-7.6 18.4s-15.29-12.08-15.29-18.4a11.44 11.44 0 1 1 22.88 0z" fill="#473630"></path><path d="m197.41 125.2c0 6.32-9 18.37-15.27 18.37s-7.61-12-7.61-18.37a11.44 11.44 0 0 1 22.88 0z" fill="#473630"></path><path d="m187.29 136.57a18.55 18.55 0 0 1 -1.59 7 62.31 62.31 0 0 1 -11.7 17.85l-13.9 14.23a44.31 44.31 0 0 1 -30.58 13.54q-.94 0-1.9 0h-.32a44.42 44.42 0 0 1 -31.05-13.55l-11.08-11.36a63.31 63.31 0 0 1 -14.85-20.68 18.62 18.62 0 0 1 -1.61-7l-1.94-55a18.79 18.79 0 0 1 .83-6.06 63.14 63.14 0 0 1 120.95.42 17.88 17.88 0 0 1 .7 5.6z" fill="#533e37"></path><path d="m199.06 81.37c-2.78-20.66-21.69-37.81-37-37.81-11 0-20.88 5.59-27.66 13.21 3.6 11.3 9.06 17.59 13.16 21.23 12.19 10.71 24.73 8.41 33.77 19.44 5.15 6.28 6.5 13.64 6.9 18.42 2.37-2.86 13.26-16.48 10.83-34.49z" fill="url(#d)"></path><path d="m118.87 20a61.35 61.35 0 0 0 -61.35 61.37 68.55 68.55 0 0 0 2.05 15.76 52.7 52.7 0 0 0 8.29 16.71 28.4 28.4 0 0 1 3.57-10c12.27-20.54 44.83-11.32 71.79-29.53 7.24-4.89 16.79-13.59 24.48-30.06-4-5.12-14-16.38-30.82-21.54a61.29 61.29 0 0 0 -18.01-2.71z" fill="#f0d0b6"></path><path d="m129.47 73.31a124.26 124.26 0 0 1 -31.18 5.17c-7.84.26-12.6-.38-19.93 1.37a53.61 53.61 0 0 0 -20.9 10.41 66.14 66.14 0 0 1 .62-17.6 63.82 63.82 0 0 1 16.54-33.66 62.74 62.74 0 0 1 24.6-15.77z" fill="url(#e)"></path></g><circle cx="128" cy="128" fill="none" r="128"></circle></svg>