<svg viewBox="0 0 256.11 256" xmlns="http://www.w3.org/2000/svg" xmlns:xlink="http://www.w3.org/1999/xlink"><clipPath id="a"><circle cx="128.11" cy="128" r="128"></circle></clipPath><linearGradient id="b" gradientUnits="userSpaceOnUse" x1="70.68" x2="188.24" y1="54.35" y2="54.35"><stop offset="0" stop-color="#00b8d9"></stop><stop offset=".03" stop-color="#00b4d4"></stop><stop offset=".2" stop-color="#00a2bf"></stop><stop offset=".39" stop-color="#0096b1"></stop><stop offset=".63" stop-color="#008fa9"></stop><stop offset="1" stop-color="#008da6"></stop></linearGradient><circle cx="128.11" cy="128" fill="#00c7e5" r="128"></circle><g clip-path="url(#a)"><path d="m128.11 256a127.63 127.63 0 0 0 92.68-39.72l-34.23-17.12a46.87 46.87 0 0 0 -19.06-4.91l-37.11-1.51-37.11 1.51a46.87 46.87 0 0 0 -19.06 4.91l-36.35 18.17c-.32.16-.62.33-.93.51a127.6 127.6 0 0 0 91.17 38.16z" fill="#008da6"></path><g fill="#ac8457"><path d="m162 175.28c-.15 3.19-.3 11.06 1.39 17.39.67 2.52 3.92 3.49 6.62 5.06a1.48 1.48 0 0 1 .42 2.18c-5.3 6.74-14.08 13.34-23.63 17.65a2.51 2.51 0 0 0 -1.25 1.22l-13 27.71a2.53 2.53 0 0 1 -4.58 0l-13.1-27.71a2.51 2.51 0 0 0 -1.25-1.22c-9.55-4.31-18.32-10.91-23.63-17.65a1.45 1.45 0 0 1 .37-2.15c2.7-1.58 6-2.55 6.66-5.09 1.69-6.33 1.54-14.2 1.39-17.39z"></path><path d="m194.4 112.68c.22 6.34-10.34 19.78-16.68 20s-6-12.86-6.27-19.2a11.48 11.48 0 0 1 23-.8z"></path><path d="m64.16 112.68c-.22 6.34 10.34 19.78 16.68 20s6-12.86 6.27-19.2a11.48 11.48 0 0 0 -23-.8z"></path></g><path d="m188.23 80.79c.53-29.88-13-56.11-58.76-54.73-46.69-1.41-59.86 25.94-58.72 56.62" fill="url(#b)"></path><path d="m70.75 82.68a123.82 123.82 0 0 0 3.1 22.58c15.1 66.58 8.8 70.5 48 81.5a28.08 28.08 0 0 0 15.16 0c39.23-11 32.94-14.92 48-81.5a121.56 121.56 0 0 0 3.15-24.47" fill="#253858"></path><path d="m129.24 164c10.84-.38 15.39 5 19.51 1.88 3.41-2.62 4.05-9.24 1.56-11.8-.8-.83-1.7-1-6.88-1.26-9.33-.5-10.26-.18-14.54-.65-4.43-.49-4.93-1-8-.9a41.07 41.07 0 0 0 -7.75 1.17c-3.14.65-4.72 1-5.26 1.63-2.12 2.53-.31 9.61 4 12.15 4.47 2.63 7.72-1.9 17.36-2.22z" fill="#ac8457"></path><path d="m129.46 135.59c16.22.06 27.76 9.35 35.81 4.16s12.62-24.85 14.92-32.08a44.61 44.61 0 0 0 1.26-20.77c-.47-2.72-3.73-6.19-5.18-12.52a38.48 38.48 0 0 1 -.86-5.72 88.29 88.29 0 0 1 -19.33 8.78 87.86 87.86 0 0 1 -49.81 1 85.24 85.24 0 0 1 -21.18-9.24 33.1 33.1 0 0 0 -4.5 6.93 35.29 35.29 0 0 0 -3.11 10.78 51.46 51.46 0 0 0 1.26 20.77c2.29 7.23 6.87 26.9 14.92 32.08s19.58-4.11 35.8-4.17z" fill="#ac8457"></path><path d="m125.32 59.82 19.58-43.15c5.43-.3 19-.3 32 8.27 16.88 11.06 24.61 31.06 23.37 48.94-1.31 18.95-12.35 31.34-16 35.15a35.55 35.55 0 0 0 -6.33-11.34c-7.94-9.42-17.86-10.09-28.14-15.17-6.68-3.3-15.8-9.57-24.48-22.7z" fill="#008da6"></path><path d="m75.93 114.65c-3.49-4-15.58-19-15.78-41.29 0-3.87.15-29.19 20.3-46.88 17.38-15.26 42.89-18.94 65.71-9.81-5.69 29.48-17.56 43.71-27.59 51.26-11.39 8.58-26.08 12.77-35.92 29.28a56.59 56.59 0 0 0 -6.72 17.44z" fill="#00a3bf"></path></g><circle cx="128" cy="128" fill="none" r="128"></circle></svg>